<?xml version="1.0" encoding="UTF-8"?>
<!DOCTYPE svg PUBLIC "-//W3C//DTD SVG 1.1//EN" "http://www.w3.org/Graphics/SVG/1.1/DTD/svg11.dtd">
<svg xmlns="http://www.w3.org/2000/svg" xml:space="preserve" width="100%" height="100%" version="1.1" style="shape-rendering:geometricPrecision; text-rendering:geometricPrecision; image-rendering:optimizeQuality; fill-rule:evenodd; clip-rule:evenodd" viewBox="0 0 300 900" xmlns:xlink="http://www.w3.org/1999/xlink" xmlns:xodm="http://www.corel.com/coreldraw/odm/2003">
	<defs>
		<style type="text/css">
			<![CDATA[
				.black {fill:black}
				.power_off {fill:grey}
				.power_on  {fill:red}
				.text {font-weight:normal;font-size:30px;font-family:'Arial';text-anchor:middle}
			]]>
		</style>
	</defs>

	<path class="black" d="M46.48 722.43l30 0 0 3 -30 0 0 -3zm-18.98 -447.43l0 99.75c15.5,-10.06 43.68,-5.26 79.79,0.9 45.78,7.81 104.65,17.86 165.21,2.41l0 -103.06 5 0 0 602.5 -255 0 0 -602.5 5 0zm0 106.04l0 491.46 245 0 0 -489.3c-61.15,15.26 -120.12,5.21 -166.05,-2.63 -37.56,-6.41 -66.22,-11.29 -78.95,0.47zm23 95.96l50 0 0 3 -50 0 0 -3zm145 1.98l52 0 0 3 -52 0 0 -3zm-133 152.02l38 0 0 3 -38 0 0 -3zm167.99 179.26l30 0 0 3 -30 0 0 -3zm-20.91 -195.17l30 0 0 3 -30 0 0 -3zm-127.67 246.75l66 0 0 3 -66 0 0 -3zm83.04 -151.95l54.04 0 0 3 -54.04 0 0 -3z"/>
	<path id="heater" class="power_off" d="M205.88 827.42c-4.81,-4.47 -9.03,-24.91 -9.67,-33.21 -0.5,-6.55 -0.33,-13.59 1.04,-19.83 1.11,-5.08 3.66,-12.06 8.31,-12.83 14.87,-2.42 10.98,52.91 0.32,65.87zm-118.09 0.16c-5.42,-4.03 -9.52,-28.02 -9.95,-33 -0.84,-9.83 0.3,-31.95 9.52,-33.07 9.73,-1.18 10.26,23.97 9.52,32.25 -1.83,20.39 -4.55,20.06 -9.09,33.82zm39.46 -0.01c-1.73,-1.35 -3.22,-5.3 -4.03,-7.3 -3.29,-8.13 -5.23,-16.94 -5.94,-26 -2.58,-32.88 13.83,-43.92 18.32,-20.14 1.16,6.16 1.25,13.23 0.73,19.58 -1.28,15.81 -3.86,20.72 -9.08,33.86zm35.4 -7.35c-1.05,-2.64 -1.92,-5.2 -2.7,-7.91 -3.32,-11.51 -4.69,-26.11 -2.19,-37.93 1.06,-4.99 3.73,-12.13 8.41,-12.85 10.03,-1.54 10.11,24.08 9.71,32.65 -0.41,8.46 -5.07,27.44 -9.39,33.25l-3.84 -7.21zm48.17 14.34c0.85,-2.6 3.4,-6.4 4.72,-9.53 9.86,-23.52 12.55,-73.13 -10.19,-70.94 -22.02,2.11 -19.33,48.22 -8.86,71.68 1.25,2.79 4.05,6.98 4.61,8.79 -7.77,11.09 -23.8,8.45 -29.82,-0.13 3.56,-7.81 5.15,-8.13 8.18,-19.19 2.01,-7.37 3.51,-15.1 3.92,-23.2 2.3,-45.94 -24.22,-45.38 -31.37,-24.48 -6.03,17.65 -2.38,41.21 4.87,57.93 1.4,3.2 3.77,6.41 4.79,9.07 -5.92,9.83 -23.07,9.55 -29.76,0 0.99,-2.78 3.36,-6.4 4.74,-9.65 4.32,-10.21 6.78,-22.49 7.3,-33.77 0.54,-11.61 -1.11,-39.06 -17.87,-37.01 -21.76,2.65 -18.79,50.2 -8.63,71.41 0.76,1.59 1.64,3.39 2.35,4.72 0.98,1.83 1.67,2.41 2.4,4.3 -6.06,9.12 -20.66,10.45 -29.87,0.09 1.02,-2.68 3.27,-6.1 4.69,-9.46 10.18,-23.81 12.65,-73.64 -10.32,-71.08 -21.6,2.4 -19.09,49.19 -8.69,71.48 1.52,3.26 3.56,6.2 4.73,8.97 -3.62,4.77 -11.48,9.65 -20.58,6.41 -4.03,-1.44 -6.6,-3.7 -8.83,-5.86 -4.04,-3.88 -13.33,2.23 2.21,10.93 3.28,1.83 7.16,3.1 11.46,3.36 12.17,0.73 16.62,-6.04 20.72,-8.78 2.72,1.94 4.23,3.93 8.2,5.95 3.29,1.67 7.29,2.79 11.49,2.87 9.98,0.18 14.98,-4.77 19.7,-8.83 1.66,0.96 2.43,2.08 4.19,3.39 18.76,13.96 33.81,-2.52 35.82,-3.46 3.4,4.37 11.1,8.83 19.57,8.9 11.42,0.1 15.85,-6.69 19.89,-8.93 3.98,5.55 14.25,10.47 24.37,8.45 5.55,-1.11 13.11,-5.86 15.25,-9.43 1.57,-2.6 0.02,-3.97 -1.28,-5.46 -4.97,-0.78 -5.5,2.37 -8.31,4.46 -9,6.68 -19.72,2.87 -25.79,-3.97z"/>
	<path id="cooler" class="power_off" d="M150.39 118.66c15.32,-0.04 15.65,5.38 22.99,0.6l48.83 -31.69c13.49,-8.39 21.54,7.38 19.15,11.3 -3.54,2.8 -11.73,6.21 -16.42,8.46l-34.02 15.77c-5.55,2.68 -11.61,4.88 -16.85,7.84 -0.42,2.92 -0.46,6.39 -0.64,9.19 -0.25,3.94 -0.13,3.98 -3.05,6.24 -10.71,8.28 -31,5.43 -42.52,-2.99l-0.12 -12.15c-11.84,-5.55 -23.11,-11.28 -34.72,-16.89 -2.58,-1.25 -33.53,-15.79 -34.32,-17.43 -0.98,-6.43 2.29,-10.2 7.33,-11.16 5.51,-1.04 10.82,1.11 14.24,3.39l43.59 28.4c15.04,9.9 2.48,1.2 26.53,1.12zm18.33 -5.86c-5.38,0.06 -10.57,-1.62 -17.02,-1.73 -19.98,-0.34 -15.22,5.03 -22.92,0.31l-38.14 -24.76c-7.34,-4.74 -14.56,-10.51 -25.41,-8.66 -5.2,0.89 -8.81,3.09 -11.43,6.76 -7.05,9.85 -3.94,17.37 6.45,22.46l36.04 17.56c8.11,4.08 16.51,7.41 24,11.52l0.28 11.05c8.05,7.74 20.15,12.46 35.74,11.73 6.83,-0.32 13.31,-2.7 17.8,-5.68 7.09,-4.71 6.82,-5.95 7.14,-16.53 4.55,-3.15 34.03,-16.11 41.67,-19.71 17.85,-8.42 34.92,-12.8 23.24,-30.24 -12.68,-18.93 -28.06,-5.98 -40.31,1.99l-37.13 23.93zm-38.74 -72.17c12.03,-12.34 34.33,-8.34 41.4,-0.66 -0.36,2.38 -13.8,24.78 -15.75,27.2 -2.41,-0.09 -3.53,-0.77 -5.9,-0.7 -2.23,0.07 -3.06,0.65 -5.88,0.68 -1.43,-1.61 -13.87,-23.4 -13.87,-26.52zm8.16 32.29l0.07 25.95c-0.03,6.29 -0.92,6.3 4.33,6.3 4.89,0 3.64,-1 3.64,-12.84 0,-5.26 -0.4,-12.32 0.18,-17.35 2.77,-0.79 4.4,-0.8 7.08,-0.13l0.11 29.9c9.68,0.52 7.5,2.72 7.5,-20.28 0,-12.34 -0.59,-9.45 4.19,-17.89 4.83,-8.51 11.93,-19.04 16.41,-27.92 -2.12,-3.59 -8.56,-7.53 -13.18,-9.66 -26.57,-12.21 -50.69,6.83 -47.48,13.61l17.15 30.31zm79.94 115.33c14.51,2.98 24.7,-13.37 16.65,-23.13 -2.66,-3.23 -10.78,-6.57 -14.54,-8.3 -5.69,-2.61 -28.74,-14.3 -31.84,-14.11 -1.12,2.29 -2.33,4.04 -2.46,6.56 8.48,4.54 17.61,8.38 25.58,12.16 10.72,5.1 23.85,8.52 15.76,16.91 -6.58,6.83 -16.55,-2.25 -25.13,-7.53 -3.41,-2.09 -20.04,-13.81 -23.8,-14.03l-3.16 5.58c1.43,2.07 24.2,15.91 27.74,18.2 4.6,2.97 8.8,6.39 15.2,7.69zm-96.49 -31.43c-3.45,0.43 -9.41,5.11 -12.31,6.97 -3.64,2.33 -7.71,4.94 -11.56,7.42 -7.9,5.07 -18.3,14.18 -25.06,6.73 -5.02,-5.51 -0.7,-8.44 3.98,-10.77 4.19,-2.09 8.1,-3.8 12.5,-5.9l25.33 -11.9c-0.22,-2.2 -0.35,-2.41 -1.28,-4.11l-1.65 -2.42c-0.07,-0.29 -0.28,-0.3 -0.42,-0.46 -3.87,0.94 -11.69,5.21 -16.01,7.31 -6.18,2.99 -26.62,11.45 -29.79,15.93 -3.98,5.59 -2.62,12.43 1.27,17.11 10.03,12.09 23.16,2.81 31.13,-2.32 4.26,-2.74 25.57,-15.49 27.4,-18.05 -0.55,-2.17 -1.75,-4.13 -3.53,-5.54zm15.06 -21.86c2.82,-0.27 4.53,-1.49 7.21,-1.82 11.42,-1.43 17.69,2.34 23.72,2.26l1.33 -5.95c-11.89,-3.18 -20.28,-5.33 -32.26,-1.18l-3.32 2.11 3.32 4.58z"/>
	<text id="t1" class="text power_off" x="150" y="600">?°C</text>
	<text id="t2" class="text power_off" x="150" y="320">?°C</text>
</svg>
